<svg xmlns="http://www.w3.org/2000/svg" xmlns:xlink="http://www.w3.org/1999/xlink" width="163.803" height="30" viewBox="0 0 163.803 30">
  <defs>
    <clipPath id="clip-path">
      <rect id="長方形_158" data-name="長方形 158" width="163.803" height="30" fill="none"/>
    </clipPath>
  </defs>
  <g id="グループ_62493" data-name="グループ 62493" transform="translate(0 0)">
    <g id="グループ_62492" data-name="グループ 62492" transform="translate(0 0)" clip-path="url(#clip-path)">
      <path id="パス_210605" data-name="パス 210605" d="M37.881,22.606V11.2l0-1.644a8.385,8.385,0,0,0-2.1-5.56l1.939-1.936A1.207,1.207,0,1,0,36.019.351L33.953,2.419a8.376,8.376,0,0,0-3.812-1.284c-.209-.016-.418-.027-.627-.029H17.274L10.462,7.6l-.788.756V1.106H0v27.72H9.674v-7.25l.788.755,6.813,6.495h3.539a4.419,4.419,0,0,0,6,0h4.766a4.433,4.433,0,0,0,6.3-6.22M23.812,27.488a1.906,1.906,0,1,1,1.925-1.926,1.927,1.927,0,0,1-1.925,1.926m6.376-2.544H28.2a4.432,4.432,0,0,0-8.768-.077,6.345,6.345,0,0,1,.95-12.618h2.7v-2.7a6.346,6.346,0,1,1,12.693,0l0,1.646s0,5.76,0,10.1a4.417,4.417,0,0,0-5.588,3.65m5.6,2.1a1.918,1.918,0,0,1-1.211.44,1.963,1.963,0,0,1-.842-.2,1.924,1.924,0,0,1,.842-3.65,1.916,1.916,0,0,1,1.211,3.409" transform="translate(0 0)" fill="#00823e"/>
      <path id="パス_210606" data-name="パス 210606" d="M60.056,24.206a.9.9,0,0,0,1.633,0,2.526,2.526,0,0,0,0-2.526.9.9,0,0,0-1.633,0,2.53,2.53,0,0,0,0,2.526" transform="translate(-34.792 -12.326)" fill="#00823e"/>
      <path id="パス_210607" data-name="パス 210607" d="M70.293,24.206a.9.9,0,0,0,1.632,0,2.528,2.528,0,0,0,0-2.526.9.9,0,0,0-1.632,0,2.526,2.526,0,0,0,0,2.526" transform="translate(-40.756 -12.326)" fill="#00823e"/>
      <path id="パス_210608" data-name="パス 210608" d="M52.64,36.858a7.07,7.07,0,0,0,9.616.17l-1.1-1.139a5.489,5.489,0,0,1-7.377-.13c-.224.217-.87.842-1.138,1.1" transform="translate(-30.669 -20.834)" fill="#00823e"/>
      <rect id="長方形_155" data-name="長方形 155" width="6.169" height="3.864" transform="translate(66.484 13.504)" fill="#231815"/>
      <rect id="長方形_156" data-name="長方形 156" width="8.672" height="18.901" transform="translate(43.021 6.318)" fill="#231815"/>
      <path id="パス_210609" data-name="パス 210609" d="M140.79,15.137l-7.193,8.14,8.529,10.761H131.567l-7.354-9.869,7.955-9.033Z" transform="translate(-72.368 -8.819)" fill="#231815"/>
      <path id="パス_210610" data-name="パス 210610" d="M362.308,21.157l-4.691,5.58,5.2,7.311h-8.978l-4.1-6.713v6.713h-8.153V15.177h8.153V27.3l5.227-6.139Z" transform="translate(-199.011 -8.842)" fill="#231815"/>
      <path id="パス_210611" data-name="パス 210611" d="M203.448,15.044l-4.766,18.995H192.1L189.585,23.56l-2.374,10.478H180.43l-4.774-18.995h6.165l2.514,10.933,2.452-10.933h5.305L194.759,26l2.517-10.954Z" transform="translate(-102.339 -8.765)" fill="#231815"/>
      <path id="パス_210612" data-name="パス 210612" d="M253.6,40.589a11.862,11.862,0,0,1-7.405-2.222,6.2,6.2,0,0,1-2.692-5.024,6.113,6.113,0,0,1,2.94-5.094,14.7,14.7,0,0,1,14.939.165,6.057,6.057,0,0,1,2.756,5.113,6.138,6.138,0,0,1-2.921,5.1,12.707,12.707,0,0,1-7.616,1.961m.152-3.266a1.9,1.9,0,0,0,2.115-1.276,9.69,9.69,0,0,0,.413-2.716,5.433,5.433,0,0,0-.5-2.788,2.51,2.51,0,0,0-3.791-.022,5.344,5.344,0,0,0-.628,2.882,5.439,5.439,0,0,0,.571,3.134,2.2,2.2,0,0,0,1.821.786" transform="translate(-141.869 -15.318)" fill="#231815"/>
      <path id="パス_210613" data-name="パス 210613" d="M307.279,41.419h-8.457v-13.7h7.35v3.019q1.262-3.03,5.867-3.03c.31,0,1.094.018,1.64.053v5.3a17.165,17.165,0,0,0-2.017-.132,4.146,4.146,0,0,0-4.383,4.125Z" transform="translate(-174.098 -16.145)" fill="#231815"/>
      <path id="パス_210614" data-name="パス 210614" d="M251.6,8.156h-1.677V9.642h-.886V8.156h-1.809v-.8h1.809v-.7h-1.485V2.88h1.474V2.169h-1.735V1.375h1.735v-1h.9v1h1.621V.747h4.643v.877a7.2,7.2,0,0,1-1.477,1.986,8.84,8.84,0,0,0,1.915.939l-.6.806a10.289,10.289,0,0,1-1.988-1.17,11.693,11.693,0,0,1-1.974,1.192l-.616-.724a9.872,9.872,0,0,0,1.953-1.034,5.6,5.6,0,0,1-1.285-2.067h-.52v.618h-1.677V2.88h1.423V6.654h-1.423v.7H251.6ZM249.1,3.6h-.756v.776h.756Zm0,1.486h-.756v.824h.756ZM250.567,3.6h-.7v.776h.7Zm0,1.486h-.7v.824h.7Zm6.05,4.254h-5.226V8.482h2.2V6.965h-1.838V6.14h1.838V5.083h.9V6.14h1.87v.825h-1.87V8.482h2.132ZM254.078,3.1a5.416,5.416,0,0,0,1.2-1.547h-2.259A4.427,4.427,0,0,0,254.078,3.1" transform="translate(-144.04 -0.221)" fill="#231815"/>
      <path id="パス_210615" data-name="パス 210615" d="M323.087,7.241a7.251,7.251,0,0,1-5.6,3.1v-1a6.553,6.553,0,0,0,4.076-1.883,6.9,6.9,0,0,0,1.727-4.24h-4.3a6.094,6.094,0,0,1-1.2,1.9,5.347,5.347,0,0,1-1.767,1.316V5.328a5.289,5.289,0,0,0,2.162-3.094h6.271a10.28,10.28,0,0,1-.333,2.6,8.023,8.023,0,0,1-1.034,2.4" transform="translate(-184.118 -1.302)" fill="#231815"/>
      <rect id="長方形_157" data-name="長方形 157" width="6.26" height="1.047" transform="translate(123.832 4.441)" fill="#231815"/>
      <path id="パス_210616" data-name="パス 210616" d="M282.389,2.046v.847a9.577,9.577,0,0,1-.806,4.039c-1,2.187-3.4,3.107-5.6,3.484l-.346-.869c5.1-.806,5.618-3.557,5.712-6.612h-5.963V5.928h-.983V2.046Z" transform="translate(-159.873 -1.192)" fill="#231815"/>
    </g>
  </g>
</svg>
